PathFileType	4	(X/Y/Z)	/Users/itak/Documents/Research/Walk-IL/dataset/trc/00448_00167.trc
DataRate	CameraRate	NumFrames	NumMarkers	Units	OrigDataRate	OrigDataStartFrame	OrigNumFrames
100.000000	100.000000	4	53	mm	100.000000	64	517
Frame#	Time	RPSI			LPSI			L3			STRN			T10			C7			CLAV			RBAK			LBAK			LSHO			LUPA			LAEL			LAOL			LWTS			LWPS			LFRA			LIFD			LHPS			LHTS			RSHO			RUPA			RAEL			RAOL			RWTS			RWPS			RFRA			RIFD			RHTS			RHPS			RBHD			LFHD			RFHD			LBHD			LHIP			RHIP			RASI			LASI			LKNE			LTHI			LANK			LTIP			LTOE			LMT1			LMT5			LHEE			RKNE			RTHI			RANK			RTIP			RTOE			RMT1			RMT5			RHEE			
		X1	Y1	Z1	X2	Y2	Z2	X3	Y3	Z3	X4	Y4	Z4	X5	Y5	Z5	X6	Y6	Z6	X7	Y7	Z7	X8	Y8	Z8	X9	Y9	Z9	X10	Y10	Z10	X11	Y11	Z11	X12	Y12	Z12	X13	Y13	Z13	X14	Y14	Z14	X15	Y15	Z15	X16	Y16	Z16	X17	Y17	Z17	X18	Y18	Z18	X19	Y19	Z19	X20	Y20	Z20	X21	Y21	Z21	X22	Y22	Z22	X23	Y23	Z23	X24	Y24	Z24	X25	Y25	Z25	X26	Y26	Z26	X27	Y27	Z27	X28	Y28	Z28	X29	Y29	Z29	X30	Y30	Z30	X31	Y31	Z31	X32	Y32	Z32	X33	Y33	Z33	X34	Y34	Z34	X35	Y35	Z35	X36	Y36	Z36	X37	Y37	Z37	X38	Y38	Z38	X39	Y39	Z39	X40	Y40	Z40	X41	Y41	Z41	X42	Y42	Z42	X43	Y43	Z43	X44	Y44	Z44	X45	Y45	Z45	X46	Y46	Z46	X47	Y47	Z47	X48	Y48	Z48	X49	Y49	Z49	X50	Y50	Z50	X51	Y51	Z51	X52	Y52	Z52	X53	Y53	Z53	

65	0.64	-1721.44091796875	976.5848999023438	-588.793212890625	-1649.04638671875	979.4580078125	-710.854736328125	-1672.810180664062	1071.8291015625	-625.0120239257812	-1410.6064453125	1244.464233398438	-505.4671020507812	-1679.325927734375	1196.872680664062	-630.612548828125	-1600.591430664062	1458.059936523438	-580.5933227539062	-1432.30322265625	1361.047485351562	-522.220947265625	-1706.667236328125	1345.870971679688	-523.723876953125	-1594.244750976562	1412.69091796875	-684.8991088867188	-1465.008422851562	1426.224609375	-717.5665893554688	-1441.6318359375	1312.173828125	-815.9735107421875	-1417.018432617188	1100.830932617188	-858.460693359375	-1515.96875	1089.34521484375	-834.4931030273438	-1363.962280273438	901.14208984375	-804.2064819335938	-1387.791625976562	885.1817626953125	-873.7114868164062	-1395.37890625	1013.885681152344	-866.5806274414062	-1339.403564453125	736.4989013671875	-808.4732055664062	-1372.017944335938	805.6099243164062	-873.0963745117188	-1334.96044921875	817.7797241210938	-810.9746704101562	-1604.409301757812	1422.57470703125	-404.7038879394531	-1653.508666992188	1362.53173828125	-342.9599609375	-1684.606079101562	1076.226806640625	-295.8111877441406	-1721.111572265625	1061.479736328125	-350.9400329589844	-1579.132568359375	875.1860961914062	-301.8509521484375	-1661.60986328125	857.4020385742188	-276.1414184570312	-1686.095336914062	1018.114685058594	-286.5394897460938	-1576.446044921875	715.4381713867188	-293.7267761230469	-1568.234375	775.34228515625	-285.433837890625	-1643.182373046875	771.54150390625	-272.0534057617188	-1550.951904296875	1646.9482421875	-468.611328125	-1361.367797851562	1656.978271484375	-553.875244140625	-1417.1123046875	1657.790405273438	-434.9638366699219	-1490.731201171875	1651.103759765625	-635.860595703125	-1478.661376953125	867.6845092773438	-748.2899780273438	-1698.283813476562	865.1502685546875	-414.8992309570312	-1571.901733398438	898.6190795898438	-414.0677185058594	-1431.2421875	897.6215209960938	-629.5556640625	-1490.50244140625	443.8947448730469	-715.1243286132812	-1457.273559570312	595.5433349609375	-721.7601318359375	-1598.896850585938	40.36262512207031	-779.939453125	-1510.883178710938	292.287353515625	-740.8709716796875	-1444.319580078125	42.16128921508789	-597.9915771484375	-1524.288818359375	50.59904479980469	-614.1691284179688	-1463.595092773438	45.99228286743164	-711.6983642578125	-1672.294677734375	42.29556274414062	-763.660400390625	-1667.406372070312	470.8020629882812	-422.7063293457031	-1672.727661132812	729.5265502929688	-383.6600341796875	-1741.468383789062	43.16537094116211	-448.641845703125	-1687.529418945312	326.6309204101562	-413.499755859375	-1524.722778320312	46.50733184814453	-407.1759948730469	-1570.390991210938	55.92975997924805	-463.4730834960938	-1628.067504882812	48.6145133972168	-371.9219665527344	-1782.791015625	35.93310928344727	-520.1077270507812	
66	0.65	-1721.002075195312	977.0844116210938	-588.4365234375	-1648.644775390625	979.9536743164062	-710.4488525390625	-1672.174072265625	1072.121948242188	-624.5147705078125	-1409.786376953125	1244.3623046875	-504.8603820800781	-1678.62841796875	1197.201049804688	-630.141845703125	-1599.441772460938	1458.220703125	-580.0555419921875	-1431.339233398438	1360.958740234375	-521.5970458984375	-1705.685668945312	1346.179321289062	-523.2889404296875	-1593.116943359375	1412.892822265625	-684.36669921875	-1463.807861328125	1426.254638671875	-716.888671875	-1440.35205078125	1312.261474609375	-815.34130859375	-1415.735473632812	1100.986572265625	-857.9187622070312	-1514.617797851562	1089.372314453125	-833.9931030273438	-1362.621826171875	901.2825927734375	-803.6582641601562	-1386.395385742188	885.3819580078125	-873.1705932617188	-1393.978271484375	1014.01171875	-866.0224609375	-1337.987182617188	736.6505737304688	-807.9400634765625	-1370.582153320312	805.774658203125	-872.5657348632812	-1333.800415039062	817.9359741210938	-810.4326782226562	-1603.3818359375	1422.748779296875	-404.197021484375	-1652.67919921875	1362.873046875	-342.4986267089844	-1683.903198242188	1076.566040039062	-295.5095825195312	-1720.359008789062	1061.726440429688	-350.5723571777344	-1578.189453125	875.548828125	-301.549560546875	-1660.624877929688	857.6573486328125	-275.8990173339844	-1685.221069335938	1018.344482421875	-286.2349243164062	-1575.288452148438	715.8243408203125	-293.5316162109375	-1567.104370117188	775.6618041992188	-285.3016662597656	-1642.084716796875	771.8079223632812	-271.7945861816406	-1549.55859375	1647.063354492188	-467.9999389648438	-1359.971557617188	1656.803466796875	-553.2161865234375	-1415.702880859375	1657.668212890625	-434.3394165039062	-1489.334228515625	1651.211059570312	-635.257568359375	-1478.495971679688	867.987548828125	-748.364013671875	-1697.7236328125	865.2484130859375	-414.6482849121094	-1571.241943359375	898.5691528320312	-413.9243774414062	-1430.867553710938	897.7166748046875	-629.5643920898438	-1490.984619140625	444.2081298828125	-715.4053344726562	-1457.732299804688	595.7794189453125	-722.0745239257812	-1598.91015625	40.53170013427734	-779.8170776367188	-1511.18408203125	292.5835571289062	-740.9397583007812	-1444.299926757812	42.15082550048828	-597.9370727539062	-1524.272827148438	50.6154899597168	-614.1288452148438	-1463.562866210938	45.94566345214844	-711.6726684570312	-1672.256958007812	42.49428939819336	-763.4513549804688	-1667.3173828125	470.8359375	-422.7664794921875	-1672.342041015625	729.51220703125	-383.5618591308594	-1741.376342773438	43.20940780639648	-448.6753540039062	-1687.481567382812	326.7310791015625	-413.5714416503906	-1524.655517578125	46.44524765014648	-407.1692199707031	-1570.34326171875	55.93195343017578	-463.4687805175781	-1628.044677734375	48.62338638305664	-371.9300231933594	-1782.7724609375	36.06331253051758	-520.1043701171875	
67	0.66	-1720.610595703125	977.5654296875	-588.0679321289062	-1648.314086914062	980.3818969726562	-710.0673828125	-1671.565307617188	1072.384887695312	-624.0118408203125	-1409.01220703125	1244.231079101562	-504.2691650390625	-1677.953735351562	1197.476318359375	-629.6458129882812	-1598.34814453125	1458.363525390625	-579.5089111328125	-1430.416259765625	1360.834716796875	-520.97705078125	-1704.737915039062	1346.453857421875	-522.8443603515625	-1592.041625976562	1413.077270507812	-683.8171997070312	-1462.671752929688	1426.268188476562	-716.2003173828125	-1439.119140625	1312.334716796875	-814.70849609375	-1414.496826171875	1101.126708984375	-857.3831787109375	-1513.37890625	1089.433837890625	-833.534423828125	-1361.3193359375	901.4207153320312	-803.1162719726562	-1385.024047851562	885.5574340820312	-872.6339111328125	-1392.626586914062	1014.141052246094	-865.4642333984375	-1336.572998046875	736.802001953125	-807.3937377929688	-1369.146240234375	805.9229125976562	-872.0430297851562	-1332.670654296875	818.0805053710938	-809.8956909179688	-1602.4189453125	1422.92822265625	-403.6720275878906	-1651.92333984375	1363.20947265625	-342.0283813476562	-1683.30419921875	1076.8720703125	-295.2138977050781	-1719.707885742188	1061.950439453125	-350.2131042480469	-1577.273193359375	875.922119140625	-301.2904968261719	-1659.678344726562	857.8939208984375	-275.6692504882812	-1684.427368164062	1018.536926269531	-285.9184875488281	-1574.098510742188	716.219482421875	-293.389892578125	-1565.974975585938	776.0007934570312	-285.2078857421875	-1640.983520507812	772.0927734375	-271.5668334960938	-1548.224853515625	1647.165405273438	-467.4060363769531	-1358.645141601562	1656.613525390625	-552.5750122070312	-1414.350341796875	1657.521118164062	-433.7326049804688	-1488.024291992188	1651.2919921875	-634.6777954101562	-1478.384033203125	868.2205810546875	-748.48046875	-1697.166381835938	865.358154296875	-414.3829040527344	-1570.596313476562	898.495361328125	-413.8145141601562	-1430.536254882812	897.7665405273438	-629.64404296875	-1491.364013671875	444.4322509765625	-715.6473999023438	-1458.115966796875	595.9552612304688	-722.37841796875	-1598.940063476562	40.64103317260742	-779.7332153320312	-1511.385009765625	292.8148498535156	-740.9840087890625	-1444.312133789062	42.15656661987305	-597.9047241210938	-1524.255615234375	50.63639831542969	-614.118408203125	-1463.53515625	45.89958953857422	-711.6751098632812	-1672.267211914062	42.63303756713867	-763.2898559570312	-1667.266845703125	470.8530883789062	-422.8401489257812	-1671.96435546875	729.5114135742188	-383.4600219726562	-1741.306884765625	43.23770141601562	-448.6987915039062	-1687.465942382812	326.826416015625	-413.6484069824219	-1524.608520507812	46.40128326416016	-407.1697082519531	-1570.308715820312	55.935546875	-463.4700622558594	-1628.030639648438	48.63066101074219	-371.9401245117188	-1782.767333984375	36.16096878051758	-520.106689453125	
68	0.67	-1720.246459960938	977.9929809570312	-587.6790161132812	-1648.063110351562	980.7398681640625	-709.721923828125	-1671.00927734375	1072.619873046875	-623.5216064453125	-1408.283447265625	1244.065063476562	-503.7032775878906	-1677.29931640625	1197.696655273438	-629.1336669921875	-1597.316528320312	1458.482666015625	-578.95458984375	-1429.534912109375	1360.671630859375	-520.3659057617188	-1703.826293945312	1346.68603515625	-522.3917236328125	-1591.021240234375	1413.241943359375	-683.2612915039062	-1461.602783203125	1426.262939453125	-715.5093994140625	-1437.939086914062	1312.385375976562	-814.0767211914062	-1413.302124023438	1101.24462890625	-856.8582763671875	-1512.236328125	1089.502685546875	-833.1199951171875	-1360.059692382812	901.5535278320312	-802.5752563476562	-1383.678466796875	885.7029418945312	-872.0994262695312	-1391.331909179688	1014.266357421875	-864.9119873046875	-1335.176025390625	736.949951171875	-806.833251953125	-1367.702392578125	806.0480346679688	-871.5187377929688	-1331.541137695312	818.2175903320312	-809.3543090820312	-1601.526245117188	1423.10693359375	-403.1286315917969	-1651.233032226562	1363.516357421875	-341.5483703613281	-1682.79638671875	1077.11669921875	-294.91748046875	-1719.158569335938	1062.138305664062	-349.8631896972656	-1576.397216796875	876.2913818359375	-301.0694580078125	-1658.784423828125	858.0980834960938	-275.4524536132812	-1683.718139648438	1018.681030273438	-285.5929565429688	-1572.893676757812	716.6051025390625	-293.302490234375	-1564.866455078125	776.34814453125	-285.1410522460938	-1639.8974609375	772.3866577148438	-271.3782958984375	-1546.949340820312	1647.239990234375	-466.8250427246094	-1357.391357421875	1656.403930664062	-551.9545288085938	-1413.055786132812	1657.343994140625	-433.1445922851562	-1486.7939453125	1651.333740234375	-634.1183471679688	-1478.3310546875	868.374267578125	-748.625	-1696.626953125	865.4737548828125	-414.1098937988281	-1569.954711914062	898.3991088867188	-413.7327270507812	-1430.258056640625	897.7643432617188	-629.7838745117188	-1491.627319335938	444.5596008300781	-715.842041015625	-1458.414306640625	596.0619506835938	-722.6589965820312	-1598.97216796875	40.68959426879883	-779.6815795898438	-1511.533203125	292.942626953125	-741.0469360351562	-1444.34912109375	42.17434310913086	-597.893798828125	-1524.236572265625	50.6656379699707	-614.1372680664062	-1463.509521484375	45.85304641723633	-711.7025756835938	-1672.319091796875	42.71076965332031	-763.1773681640625	-1667.254150390625	470.8507080078125	-422.9267883300781	-1671.592163085938	729.5272216796875	-383.3474731445312	-1741.264038085938	43.25072860717773	-448.7104187011719	-1687.476928710938	326.9087524414062	-413.7265319824219	-1524.580810546875	46.3731803894043	-407.1768493652344	-1570.286987304688	55.94002914428711	-463.4760131835938	-1628.025146484375	48.63576889038086	-371.9512329101562	-1782.769287109375	36.22210693359375	-520.109619140625	
